<?xml version="1.0" standalone="no"?>
<!DOCTYPE svg PUBLIC "-//W3C//DTD SVG 20010904//EN"
 "http://www.w3.org/TR/2001/REC-SVG-20010904/DTD/svg10.dtd">
<svg version="1.0" xmlns="http://www.w3.org/2000/svg"
 width="128.000000pt" height="128.000000pt" viewBox="0 0 128.000000 128.000000"
 preserveAspectRatio="xMidYMid meet">
<metadata>
Created by potrace 1.11, written by Peter Selinger 2001-2013
</metadata>
<g transform="translate(0.000000,128.000000) scale(0.100000,-0.100000)"
fill="#000000" stroke="none">
<path d="M559 1093 c-14 -3 -15 -10 -3 -61 18 -73 18 -69 -13 -75 -40 -8 -133
-73 -166 -115 -22 -29 -25 -38 -15 -48 18 -18 68 -29 68 -16 0 19 64 73 110
94 26 11 67 20 96 20 l52 1 19 98 c17 83 18 99 6 104 -17 6 -130 5 -154 -2z"/>
<path d="M813 993 c-19 -41 -23 -58 -14 -61 7 -2 24 -14 37 -26 l25 -21 -25
-24 -26 -24 26 -34 c24 -31 59 -103 52 -107 -2 -1 -24 -7 -51 -13 l-47 -10
-16 34 c-22 45 -34 50 -56 24 -16 -21 -16 -25 -3 -44 8 -12 15 -38 15 -58 0
-28 5 -38 24 -47 21 -9 25 -8 30 13 6 22 10 23 54 19 26 -3 65 -10 87 -14 22
-5 42 -7 44 -4 3 3 4 31 3 63 l-2 59 47 8 c27 4 53 8 58 9 29 2 -30 143 -87
206 -37 41 -124 109 -139 109 -6 0 -22 -26 -36 -57z"/>
<path d="M570 769 c-48 -29 -48 -28 -22 -50 22 -17 26 -17 45 -4 12 8 29 15
38 15 14 0 28 26 29 53 0 15 -56 6 -90 -14z"/>
<path d="M186 714 c-12 -32 2 -181 23 -233 23 -62 79 -148 100 -156 9 -3 32
12 57 36 l42 41 35 -26 35 -27 20 34 19 34 -28 19 -28 19 36 37 36 36 -22 44
c-11 25 -21 56 -21 69 0 22 -6 27 -47 36 -27 6 -50 10 -52 8 -6 -7 -5 -79 2
-107 6 -23 3 -27 -25 -37 -44 -15 -51 -5 -58 86 l-5 77 -57 12 c-47 9 -58 9
-62 -2z"/>
<path d="M705 509 c-22 -10 -52 -19 -66 -19 -24 0 -27 -5 -36 -50 -11 -56 -13
-54 61 -51 40 1 106 27 140 55 19 16 19 17 -14 51 -39 40 -33 39 -85 14z"/>
<path d="M835 375 c-49 -41 -132 -67 -197 -63 l-57 3 -11 -48 c-17 -82 -17
-82 49 -85 109 -6 240 38 318 107 l32 28 -42 41 c-24 23 -47 42 -52 42 -6 -1
-23 -12 -40 -25z"/>
</g>
</svg>
